PathFileType	4	(X/Y/Z)	C:/Users/beibeiliu/ov580/test_trc\sequence.27_training_dense_right.trc
DataRate	CameraRate	NumFrames	NumMarkers	Units	OrigDataRate	OrigDataStartFrame	OrigNumFrames
120	120	18	19	mm	120	1	75
Frame#	Time	ThumbCMC			ThumbMCP			ThumbIP			ThumbTip			IndexMCP			IndexPIP			IndexTip			MiddleMCP			MiddlePIP			MiddleTip			RingMCP			RingPIP			RingTip			PinkyMCP			PinkyPIP			PinkyTip			BackHand1			BackHand2			BackHand3	
		X0	Y0	Z0	X1	Y1	Z1	X2	Y2	Z2	X3	Y3	Z3	X4	Y4	Z4	X5	Y5	Z5	X6	Y6	Z6	X7	Y7	Z7	X8	Y8	Z8	X9	Y9	Z9	X10	Y10	Z10	X11	Y11	Z11	X12	Y12	Z12	X13	Y13	Z13	X14	Y14	Z14	X15	Y15	Z15	X16	Y16	Z16	X17	Y17	Z17	X18	Y18	Z18	
0	0	51.7928	54.4674	29.2169	31.0655	37.7767	10.5113	24.0507	28.9626	-11.4397	19.3483	20.8083	-29.0545	47.9453	59.9303	-38.5759	41.683	45.079	-61.9914	33.6454	30.3556	-75.2625	71.4682	57.236	-47.4269	63.9832	45.7282	-70.1279	62.9589	25.1558	-89.8404	87.9191	50.3169	-43.6519	84.5165	37.6081	-65.0642	81.7969	20.5796	-81.4869	106.231	44.6707	-33.2343	108.88	35.2702	-50.5119	111.227	26.5969	-65.6327	93.6548	68.0773	-0.143414	96.6388	74.6974	26.7897	70.2463	75.8034	16.8825	
1	0.00833333	48.3898	55.293	23.8509	34.54	39.2834	10.5317	24.8501	30.347	-13.5975	15.7394	20.3521	-26.9704	47.0434	59.8046	-39.0589	38.4577	47.1768	-62.5737	35.9442	27.8115	-78.1047	66.9797	58.25	-46.7356	61.5686	43.8851	-73.7398	60.7968	24.7008	-91.9242	84.4316	50.7754	-46.4567	88.3487	38.4077	-63.5014	79.5711	21.7024	-81.5464	104.619	45.2987	-33.1194	108.14	35.5317	-52.3391	105.666	26.2541	-69.3384	92.4903	68.1724	-0.894278	96.0054	74.3121	25.3756	68.4273	77.502	12.8758	
2	0.0166667	48.2294	56.5272	28.3038	34.7488	40.355	7.28896	23.2505	31.286	-13.1202	17.9076	23.1093	-29.0673	47.6319	60.4404	-40.5105	38.3967	50.0144	-60.1824	36.6644	31.3283	-77.1717	66.6486	57.4408	-52.5469	61.548	44.8635	-74.244	60.7734	23.732	-93.1901	87.7536	51.021	-46.1577	84.5532	39.7943	-63.9206	80.5026	22.1967	-80.9808	105.061	46.21	-35.7813	108.002	35.9498	-50.3413	107.017	28.8616	-66.8487	93.6588	68.7725	-3.1705	99.1325	75.2826	21.0343	71.2996	78.6944	12.8882	
3	0.025	47.2225	57.7621	24.9982	32.4388	41.5591	10.0053	23.2547	32.9026	-14.4112	14.7363	23.1133	-29.2428	46.4048	61.969	-39.1163	38.4421	47.749	-63.6629	37.6779	31.0292	-78.8757	71.4995	57.855	-51.4056	65.6592	43.7299	-75.715	63.4922	24.6081	-92.0678	86.6483	52.0762	-48.275	85.4841	38.2464	-68.2298	79.1855	22.5871	-81.8327	105.268	46.0587	-34.802	107.057	36.9114	-48.9992	108.033	26.0885	-70.2818	91.7967	70.9469	-3.47995	98.6896	73.7283	23.6107	67.8132	78.529	9.4955	
4	0.0333333	46.7531	60.4616	23.7735	33.5945	44.1918	9.10585	22.3154	35.7358	-12.246	14.6535	25.8224	-29.3729	49.0062	62.8422	-43.1105	40.2554	53.1247	-62.128	39.0474	35.0103	-79.0652	68.5961	60.5268	-47.802	64.3729	45.1515	-75.1355	61.3124	29.4947	-92.1005	87.1963	52.5053	-42.9806	82.9106	39.4665	-68.2503	79.3304	24.5979	-84.4875	106.866	45.0811	-31.8118	107.083	35.1741	-53.5599	106.662	24.6215	-69.974	94.1258	69.9815	-0.334203	103.069	74.9341	22.7854	75.2728	78.7225	12.239	
5	0.0416667	48.1043	61.9072	23.0144	35.4	46.9631	8.43432	24.5275	38.9187	-8.31929	15.9433	30.0541	-26.8773	48.5438	67.0876	-40.7409	46.7795	56.8806	-64.7872	35.2429	43.3669	-83.5909	72.227	61.6864	-47.8198	68.8212	50.977	-72.9669	62.3891	37.0517	-92.261	86.2728	53.8339	-46.0331	86.9681	43.8241	-66.1174	78.6299	32.6816	-82.1341	107.346	43.7423	-35.1352	104.498	37.7712	-50.3456	106.558	26.4798	-72.0292	98.7352	67.6118	-3.15165	101.109	73.3161	20.9848	75.914	79.161	8.87522	
6	0.05	51.422	62.6061	24.0659	31.6016	50.6747	9.34171	21.2496	42.5137	-13.1549	17.1341	31.7126	-30.9149	52.5101	71.1483	-40.4557	45.7644	66.0977	-65.043	45.5979	54.8332	-85.1604	70.8953	66.4858	-48.3084	68.0671	58.4231	-72.6451	64.8202	47.4366	-95.9542	90.7492	56.207	-46.0408	88.2832	49.1693	-66.4201	83.1543	41.755	-84.4999	104.155	46.7868	-32.6858	105.442	38.0062	-53.0295	103.275	32.0663	-73.6047	97.2304	69.8361	0.651177	100.55	72.9468	24.2716	75.318	79.712	10.8468	
7	0.0583333	51.6385	63.2651	28.9886	32.3434	54.0517	7.12206	26.7949	46.5917	-16.3081	29.1035	35.6939	-38.9169	53.6905	76.917	-39.7692	53.2847	72.1039	-65.6971	50.1526	68.6699	-88.132	74.1054	69.9521	-49.1501	70.4007	67.0178	-73.1589	71.0146	61.7045	-100.69	91.6169	59.3345	-46.2313	90.0447	56.3668	-67.2105	82.8969	55.7962	-84.3418	104.284	50.1355	-31.4956	101.887	46.5703	-49.9436	103.113	44.528	-72.1248	97.2178	71.2868	-2.70302	102.808	72.5354	26.7789	75.1907	81.4453	15.3581	
8	0.0666667	53.8884	63.61	24.2161	32.5362	56.2623	6.00394	32.7589	49.5428	-16.7933	39.5019	37.5455	-38.7539	57.0728	77.6109	-39.9806	55.8059	78.4757	-62.5504	57.0538	77.3113	-81.804	75.9868	73.223	-46.8449	73.177	73.0279	-73.7595	72.8671	74.3662	-92.4758	89.6471	64.0428	-40.844	88.2367	63.17	-62.4992	86.6831	65.8811	-85.7554	104.506	52.5077	-33.0269	99.108	51.3842	-51.6277	102.988	51.064	-68.6064	101.62	69.7991	-1.19352	105.213	70.4727	23.7316	78.5855	79.1115	16.2333	
9	0.075	52.594	62.7764	29.6882	33.6955	56.0059	4.08523	35.8539	49.9943	-19.0255	50.6711	37.7977	-39.6806	60.7107	76.8129	-39.0027	56.4023	78.6577	-58.2497	60.1896	79.9209	-83.3022	74.1326	75.309	-48.1965	74.8846	75.5777	-71.8784	75.3384	80.4116	-90.6346	91.6258	64.0422	-40.1665	88.9195	65.5289	-60.9607	87.8544	70.1199	-81.9016	107.152	52.399	-32.6572	101.61	53.7772	-50.0803	100.085	58.9254	-67.2004	96.8932	67.3098	2.62798	104.776	68.5147	23.1628	81.0978	78.8297	17.0073	
10	0.0833333	56.4526	61.9157	26.1076	35.2498	56.8914	0.738054	39.0648	48.3165	-22.9802	59.1768	36.2936	-37.7458	60.3828	75.7519	-35.7191	59.7594	77.8749	-62.0617	66.4124	78.9327	-79.5673	78.7609	72.2088	-47.491	80.6229	74.0644	-67.4847	81.3039	79.8055	-90.1346	95.2167	63.4687	-43.3439	93.5707	65.6104	-61.1097	92.3111	70.3893	-80.9534	109.637	51.076	-31.9974	104.067	54.1469	-48.8474	103.857	61.0456	-69.1253	99.1722	66.2531	4.39497	105.883	69.2685	27.5463	80.8179	75.5082	17.2889	
11	0.0916667	58.3841	58.5623	29.6512	43.323	55.2274	3.2454	47.9133	48.1767	-25.4929	66.9164	35.0552	-39.3602	63.1593	74.0627	-39.0649	66.5434	75.2838	-61.4294	69.5842	78.7086	-82.6446	80.7396	71.0448	-44.3849	83.9518	73.8035	-68.7725	83.9298	81.2615	-89.5413	99.27	63.1085	-42.0736	99.6242	64.367	-60.7579	96.917	70.7614	-82.5344	109.145	53.4756	-32.9897	110.126	55.4009	-51.0148	111.353	60.1719	-67.2675	104.217	65.4928	-0.862871	107.833	67.8164	26.2133	79.5255	75.5697	13.57	
12	0.1	60.6585	58.0215	27.3487	48.2785	53.1915	0.511037	52.9012	46.6095	-22.4583	71.1789	36.6236	-39.0496	69.1455	74.7119	-42.254	73.3342	74.4558	-62.1534	72.8259	78.3806	-79.8329	86.8622	72.3695	-49.8693	92.3398	73.0838	-71.8283	93.8647	80.1492	-90.4636	104.536	64.39	-43.2547	108.175	66.4005	-63.9108	103.483	73.1849	-81.5634	118.845	55.4183	-32.2793	115.864	57.5998	-48.5898	116.145	63.6192	-65.9499	108.025	68.8379	0.952114	111.351	68.2527	25.6585	84.8372	77.0512	16.5657	
13	0.108333	69.6991	56.2555	21.4902	54.9121	49.0476	-3.96878	63.7294	45.568	-26.2372	80.1463	36.3556	-41.4183	78.76	72.2966	-41.0115	82.2037	75.1324	-63.4013	83.9226	81.1611	-86.3687	98.9388	73.0304	-46.5112	100.118	75.556	-68.5309	103.61	84.8166	-92.9838	115.134	68.3724	-44.4844	111.039	70.6492	-61.7379	114.549	75.6788	-78.712	128.959	59.9744	-28.8064	126.845	62.9716	-49.8779	124.601	68.9839	-62.5436	112.468	71.3938	3.8808	114.866	72.9358	24.6742	87.1505	77.9405	15.3154	
14	0.116667	73.6633	55.1168	17.7023	60.4008	44.327	-7.99155	73.2973	42.4434	-30.4804	97.4072	37.4803	-46.013	84.6972	73.9448	-48.163	91.4095	74.9998	-69.0182	91.5714	79.4163	-87.7431	102.4	75.5253	-50.7333	109.373	78.2051	-69.8482	111.513	86.6409	-94.5092	123.802	73.7662	-43.356	123.502	77.6628	-65.5725	123.109	82.3645	-84.582	135.553	67.2643	-28.713	138.887	70.7013	-45.818	136.493	77.3755	-66.2467	120.148	76.8813	1.33519	115.423	79.4823	25.7642	91.2291	77.8575	8.58317	
15	0.125	76.779	58.6477	14.6227	69.6524	45.277	-9.89627	80.5173	40.3787	-32.1703	102.875	36.2769	-44.1501	90.901	71.283	-51.2226	96.4802	70.2003	-73.544	99.0927	72.9713	-92.432	110.771	74.826	-55.6656	112.982	75.5041	-77.7625	117.008	80.648	-97.4176	125.549	75.2631	-46.5079	133.352	77.1435	-63.0757	133.476	79.6688	-85.6792	142.283	72.13	-30.209	144.864	72.5471	-47.6465	143.749	76.6617	-66.9107	125.089	83.8701	0.0619721	121.819	87.845	20.9428	95.2271	81.5809	8.31812	
16	0.133333	80.3524	68.166	15.2757	67.368	53.0175	-10.2144	83.1008	44.6763	-30.6075	103.382	33.6879	-39.3526	93.6345	65.8051	-53.5798	96.6606	59.7217	-72.9571	105.736	57.2484	-93.7952	111.746	66.7018	-54.0452	115.133	60.5129	-75.4639	124.556	59.5693	-96.7922	127.936	64.8689	-43.0651	132.696	60.3753	-67.096	133.813	59.6015	-87.4569	144.194	62.8184	-27.9149	143.918	57.9453	-50.3632	144.853	58.6016	-68.8426	126.676	82.9657	-2.44491	125.554	91.4127	20.5244	99.9676	86.8515	5.68486	
17	0.141667	78.6942	83.0458	11.9066	67.5932	66.466	-9.99654	71.8713	49.531	-25.6653	88.9874	32.1315	-31.3325	93.4334	58.3589	-51.779	94.2636	46.9316	-68.5201	96.8054	37.5669	-85.8102	110.154	50.2124	-53.6922	110.093	39.0593	-73.3063	111.461	32.9428	-93.7468	121.703	47.8601	-43.6583	125.939	35.1848	-63.3313	122.271	30.9198	-79.3428	134.976	44.1465	-28.2917	135.293	34.6971	-45.0469	139.736	31.443	-60.22	130.569	74.4226	-4.47043	131.389	88.4838	18.2883	103.214	90.771	1.00557	
